<svg xmlns="http://www.w3.org/2000/svg" width="18" height="18" viewBox="0 0 16 16"><path data-name="Path 1336" d="M9.532 8A1.531 1.531 0 118 6.469 1.531 1.531 0 019.532 8zm0 0"/><path data-name="Path 1337" d="M11.581 5.291a1.522 1.522 0 00-.872-.872 2.542 2.542 0 00-.853-.158c-.484-.022-.63-.027-1.856-.027s-1.372 0-1.856.027a2.543 2.543 0 00-.853.158 1.522 1.522 0 00-.872.872 2.543 2.543 0 00-.158.853c-.022.484-.027.63-.027 1.856s0 1.372.027 1.856a2.542 2.542 0 00.158.853 1.522 1.522 0 00.872.872 2.54 2.54 0 00.853.158c.484.022.63.027 1.856.027s1.372 0 1.856-.027a2.539 2.539 0 00.853-.158 1.521 1.521 0 00.872-.872 2.545 2.545 0 00.158-.853c.022-.484.027-.63.027-1.856s0-1.372-.027-1.856a2.54 2.54 0 00-.158-.853zM8 10.359A2.359 2.359 0 1110.359 8 2.359 2.359 0 018 10.359zm2.452-4.26a.551.551 0 11.551-.551.551.551 0 01-.554.551zm0 0"/><path data-name="Path 1338" d="M8 0a8 8 0 108 8 8 8 0 00-8-8zm4.566 9.894a3.37 3.37 0 01-.214 1.115 2.349 2.349 0 01-1.344 1.344 3.373 3.373 0 01-1.115.214c-.49.022-.646.028-1.894.028s-1.4-.005-1.894-.028a3.373 3.373 0 01-1.115-.214 2.349 2.349 0 01-1.344-1.344 3.37 3.37 0 01-.214-1.115C3.411 9.4 3.406 9.248 3.406 8s.005-1.4.028-1.894a3.371 3.371 0 01.213-1.115 2.35 2.35 0 011.344-1.344 3.373 3.373 0 011.115-.214c.49-.022.646-.028 1.894-.028s1.4.005 1.894.028a3.374 3.374 0 011.115.213 2.35 2.35 0 011.344 1.344 3.37 3.37 0 01.214 1.115c.022.49.028.646.028 1.894s-.006 1.401-.029 1.895zm0 0"/></svg>
